<?xml version="1.0" encoding="utf-8"?>
<!-- Generator: Adobe Illustrator 27.1.1, SVG Export Plug-In . SVG Version: 6.00 Build 0)  -->
<svg version="1.1" id="Layer_1" xmlns="http://www.w3.org/2000/svg" xmlns:xlink="http://www.w3.org/1999/xlink" x="0px" y="0px"
	 viewBox="0 0 1080 1080" style="enable-background:new 0 0 1080 1080;" xml:space="preserve">
<style type="text/css">
	.st0{fill:none;stroke:#1B1464;stroke-width:17.5279;stroke-miterlimit:10;}
	.st1{fill-rule:evenodd;clip-rule:evenodd;fill:#1B1464;}
	.st2{fill:#1B1464;}
</style>
<g>
	<path class="st0" d="M715.52,367.51c-4.73-20.46-16-39.31-30.26-55.38c-21.19-23.86-48.99-41.6-71.85-49.35
		c-1.91-0.65-3.78-1.23-5.61-1.73c-41.48-11.45-62.1-4.76-62.1-4.76c-48.67-28.2-90.81,16.2-90.81,16.2
		c-31.21-4.12-54.78,2.53-72.47,13.69c-39.57,24.97-49.65,72.51-49.65,72.51c-60.32,39.16-39.12,110.37-39.12,110.37
		c-6.56,41.2,0.87,72.98,13.04,96.78c21.56,42.16,58,59.25,58,59.25c56.33,68.41,116.05,36.44,116.05,36.44l52.85,79.31l-2.35-25.36
		c0.32-17.41,4.5-41.34,20.96-63.79c5.47-7.46,9.5-14.49,12.44-21.02c13.6-30.2,3.74-49.52,3.74-49.52
		c38.16-4.47,60.41-19.37,73.34-36.15c21.13-27.44,17.33-59.88,17.33-59.88c14.15-10.72,25.39-21.54,34.08-32.35
		C716.78,423.37,721.67,394.09,715.52,367.51z"/>
	<g>
		<path class="st1" d="M355.63,380.54l6.81,21.53c-6.35-1.42-6.13-1.49-8.49-8.95C351.59,385.67,351.37,385.75,355.63,380.54
			L355.63,380.54z M416.15,571.91c-8.62-2.08-8.7-3.47-12.68-16.05c-3.98-12.57-4.7-13.73,0.98-20.93L416.15,571.91L416.15,571.91z
			 M383.6,468.99c-0.97,1.26-2.19,2.74-3.71,4.6c-8.11,9.95-7.34,9.67-19.45,6.95c-12.11-2.72-11.5-2.13-15.5-14.79
			c-4-12.66-4.16-11.8,3.95-21.74c8.11-9.94,7.34-9.67,19.45-6.95c2.26,0.51,4.08,0.9,5.57,1.28L383.6,468.99L383.6,468.99z
			 M345.02,505.33c3.73-4.58,3.38-4.45,8.95-3.2c5.57,1.25,5.29,0.98,7.13,6.81c1.84,5.83,1.91,5.43-1.82,10.01
			c-3.73,4.58-3.38,4.45-8.95,3.2c-5.57-1.25-5.29-0.98-7.13-6.81C341.36,509.51,341.29,509.9,345.02,505.33L345.02,505.33z
			 M344.59,537.66c6.39-7.84,5.79-7.62,15.33-5.48c9.55,2.14,9.07,1.68,12.22,11.66c3.16,9.98,3.28,9.3-3.11,17.14
			c-6.39,7.84-5.78,7.62-15.33,5.48c-9.55-2.14-9.06-1.68-12.22-11.66C338.32,544.82,338.19,545.5,344.59,537.66L344.59,537.66z
			 M396.43,568.26c6.45,1.45,6.12,1.13,8.26,7.88c2.13,6.74,2.22,6.29-2.1,11.58c-4.32,5.3-3.91,5.15-10.36,3.7
			c-6.45-1.45-6.13-1.14-8.26-7.88c-2.13-6.74-2.22-6.28,2.1-11.58C390.38,566.66,389.97,566.81,396.43,568.26z M410.37,398.44
			l9.13,28.88c-3.68,4.45-4.14,4.12-11.23,2.53c-8.05-1.81-7.65-1.42-10.31-9.84c-1.52-4.81-2.21-6.69-1.51-8.64l-21.15-12.89
			c-4.64,5.7-4.38,5.5-11.72,3.85l-1.15-0.26l-6.81-21.53l0.77-0.95c5.05-6.19,4.57-6.02,12.1-4.33c7.54,1.69,7.16,1.32,9.65,9.2
			c1.7,5.38,2.29,6.84,0.88,9.19l20.88,12.73l0.68-0.84c4.49-5.51,4.89-6.3,9.54-5.37L410.37,398.44L410.37,398.44z M373.9,438.34
			l9.69,30.65c4.21-5.49,3.5-6.85,0.24-17.14C380.58,441.55,380.38,440.01,373.9,438.34L373.9,438.34z M404.45,534.93
			c1-1.27,2.21-2.73,3.63-4.47c9.47-11.62,8.57-11.3,22.72-8.12c10.65,2.39,12.88,2.59,15.33,8.86l5.27-3l1.89,5.98l-5.16,2.94
			l0.79,2.5c4.68,14.79,4.86,13.79-4.61,25.4c-2.53,3.1-4.31,5.35-5.85,6.92l6.48,15.76c0.95,0.1,2.19,0.39,3.96,0.79
			c6.18,1.39,5.87,1.09,7.91,7.55c2.04,6.46,2.12,6.02-2.01,11.09c-4.14,5.08-3.74,4.93-9.92,3.55c-6.18-1.39-5.87-1.09-7.91-7.55
			c-2.04-6.46-2.12-6.02,2.01-11.1l0.99-1.22l-6.53-15.88c-2.53,0.39-5.83-0.45-11.86-1.8c-2.12-0.48-3.91-0.86-5.43-1.23
			L404.45,534.93L404.45,534.93z M507.49,636.66l-13.39-42.34c-2.15,0.77-3.83,2.99-7.56,7.56c-7.46,9.15-7.31,8.36-3.63,20
			c3.68,11.64,3.12,11.11,14.26,13.6C502.74,636.74,505.34,637.43,507.49,636.66L507.49,636.66z M436.72,481.78
			c-1.66-2.07-2.63-5.44-4.62-11.75c-1.99-6.31-3.14-9.62-2.99-12.33L436.72,481.78L436.72,481.78z M407.71,474.73
			c8.05,1.81,7.65,1.42,10.31,9.84c2.66,8.42,2.77,7.85-2.63,14.46c-5.39,6.61-4.88,6.43-12.93,4.62
			c-8.05-1.81-7.65-1.42-10.31-9.84c-2.66-8.42-2.77-7.85,2.63-14.46C400.17,472.74,399.65,472.92,407.71,474.73z M404.37,339.13
			c3-3.68,4.72-5.88,6.38-7.06l13.71,43.34c-1.3,0.09-2.87-0.16-5.05-0.63l-3.62,26.65c5.74,1.31,5.67,1.79,8.05,9.33
			c2.66,8.42,2.77,7.85-2.63,14.46c-0.65,0.79-1.21,1.49-1.71,2.09l-9.13-28.88l3.39-24.92c-9.87-2.2-9.52-2.26-13.14-13.71
			C396.8,347.77,396.65,348.59,404.37,339.13L404.37,339.13z M429.11,457.7c0.18-3.39,2.37-5.85,7.42-12.04
			c3.53-4.33,5.56-6.93,7.52-8.32l16.15,51.06c-2.35,0.16-5.44-0.61-10.72-1.8c-7.54-1.69-10.68-2.24-12.75-4.83L429.11,457.7
			L429.11,457.7z M451.4,528.19l18.11-10.32l1.89,5.98l-18.11,10.32L451.4,528.19L451.4,528.19z M494.1,594.32
			c2.15-0.77,4.76-0.08,10.33,1.17c11.14,2.5,10.58,1.96,14.26,13.61c3.68,11.64,3.83,10.85-3.63,20c-3.73,4.57-5.42,6.8-7.56,7.57
			L494.1,594.32L494.1,594.32z M480.79,578.19c-6.18-1.39-5.87-1.09-7.91-7.55c-2.04-6.46-2.12-6.02,2.01-11.09
			c3.14-3.85,3.67-4.7,6.45-4.28l7.02,22.19C486.38,579.58,485.48,579.24,480.79,578.19z M424.46,375.41l-13.71-43.34
			c2.61-1.85,5.08-1.14,12.12,0.44c11.53,2.58,10.94,2.03,14.75,14.07c3.81,12.05,3.96,11.23-3.76,20.69
			C429.15,373.05,427.59,375.2,424.46,375.41L424.46,375.41z M444.05,437.35c2.79-1.97,5.43-1.47,12.06,0.03l5.76-19.46
			c-6.43-1.87-6.85-4.11-10.46-15.53c-4.68-14.81-4.88-13.86,4.53-25.4l13.51,42.72l-1.93-0.43l-5.73,19.37
			c10.03,2.28,9.84,2.94,13.91,15.8c4.49,14.19,4.66,13.22-4.42,24.37c-5.55,6.81-7.39,9.34-11.08,9.59L444.05,437.35L444.05,437.35
			z M469.51,517.87l2.35-1.34l-0.21-0.67c-3.32-10.5-3.45-9.78,3.27-18.03c6.72-8.25,6.08-8.02,16.13-5.76l1.37,0.31l9.13,28.86
			l-0.92,1.13c-6.72,8.25-6.08,8.02-16.13,5.76c-7.2-1.62-8.98-1.82-10.63-5.69l-2.47,1.41L469.51,517.87L469.51,517.87z
			 M481.34,555.27c0.88,0.13,1.99,0.4,3.48,0.73c6.18,1.39,5.87,1.09,7.91,7.55c2.04,6.46,2.12,6.02-2.01,11.1
			c-1,1.22-1.73,2.14-2.36,2.81L481.34,555.27L481.34,555.27z M512.85,563.84c-6.18-1.39-5.87-1.09-7.91-7.55s-2.12-6.02,2.01-11.1
			c0.61-0.75,1.12-1.38,1.57-1.92l6.67,21.08C514.53,564.22,513.76,564.05,512.85,563.84z M455.93,376.99l0.11-0.13
			c9.52-11.68,8.61-11.35,22.83-8.16c14.22,3.19,13.5,2.5,18.2,17.37c3.81,12.06,4.65,13.67-0.25,20.08l20.61,17.39
			c14.42-17.71,13.22-17.18,35.15-12.26l2.08,0.46l20.4,64.51l-1.39,1.7c-14.8,18.15-13.39,17.65-35.5,12.69
			c-22.11-4.96-20.98-3.89-28.29-27c-6.69-21.15-7.49-21.63,3.77-35.47l-20.58-17.36l-0.64,0.78c-9.52,11.68-8.61,11.35-22.83,8.16
			l-0.16-0.04L455.93,376.99L455.93,376.99z M492.42,492.38l9.13,28.86c5.78-7.08,5.51-6.91,2.35-16.9
			C500.75,494.34,501.06,494.3,492.42,492.38L492.42,492.38z M508.52,543.28c2.59-3.09,3.08-2.81,8.35-1.63
			c6.18,1.39,5.87,1.09,7.91,7.55s2.12,6.02-2.01,11.09c-3.53,4.33-3.76,4.86-7.58,4.07L508.52,543.28L508.52,543.28z
			 M547.85,390.17l-30.38-96.05c-1.34,1-2.76,2.82-5.17,5.78c-6.44,7.89-6.31,7.21-3.13,17.25c3.18,10.05,2.69,9.58,12.3,11.74
			c3.2,0.72,5.26,1.22,6.83,1.28l4.26,12.04c-1.07,1.26-2.3,2.78-3.78,4.61c-9.34,11.45-9.16,10.46-4.55,25.04
			c4.61,14.58,3.9,13.91,17.86,17.04C544.37,389.41,546.25,389.85,547.85,390.17L547.85,390.17z M455.16,303.39
			c4.99-6.12,4.51-5.95,11.96-4.28c7.45,1.67,7.07,1.31,9.53,9.1c2.46,7.79,2.56,7.26-2.43,13.37c-4.99,6.12-4.51,5.95-11.96,4.28
			c-7.45-1.67-7.07-1.31-9.53-9.1C450.27,308.98,450.17,309.51,455.16,303.39L455.16,303.39z M537.29,523.32
			c3.1,9.8,2.62,9.35,12,11.45c9.38,2.1,8.78,2.32,15.06-5.38c6.28-7.7,6.16-7.03,3.06-16.83c-3.1-9.8-2.62-9.35-12-11.45
			c-9.38-2.1-8.78-2.32-15.06,5.38C534.07,514.18,534.19,513.52,537.29,523.32z M517.47,294.12c2.24-1.68,4.25-1.09,10.26,0.26
			c9.61,2.15,9.12,1.69,12.3,11.74c3.18,10.05,3.3,9.36-3.13,17.26c-1.42,1.75-2.5,3.1-3.42,4.11l3.67,10.37
			c2.95-1.7,6.08-0.83,14.03,0.95c13.95,3.13,13.24,2.45,17.86,17.04l0.27,0.86l7.09-1.78l1.87,5.92l-7.13,1.79
			c2.24,7.87,0.93,8.97-6.65,18.26c-7.81,9.58-8.47,10.93-16.64,9.28L517.47,294.12L517.47,294.12z M554.67,411.73
			c19.96,4.45,19.14,4.17,26.21,26.53c7.07,22.36,7.57,21.61-5.81,37.98L554.67,411.73L554.67,411.73z M599.95,429.38
			c-2.31-0.68-2.47-1.51-3.78-5.65c-1.31-4.14-1.66-4.9-0.2-6.93L599.95,429.38L599.95,429.38z M551.81,277.15
			c-0.96,0.34-1.72,1.34-3.39,3.39c-3.34,4.1-3.28,3.74-1.63,8.96c1.65,5.22,1.4,4.98,6.39,6.1c2.5,0.56,3.66,0.87,4.63,0.52
			L551.81,277.15z M551.81,277.15c0.96-0.34,2.13-0.04,4.63,0.52c4.99,1.12,4.74,0.88,6.39,6.09c1.65,5.22,1.71,4.86-1.63,8.96
			c-1.67,2.05-2.43,3.04-3.39,3.39L551.81,277.15L551.81,277.15z M576.4,354.92l11.87-2.98c-2.47-8.18-2.03-9.9,3.41-16.68
			l12.42,39.27c-9.78-2.28-9.77-3.39-13.97-16.67l-11.86,2.98L576.4,354.92L576.4,354.92z M595.97,416.81
			c0.45-0.63,1.07-1.37,1.89-2.37c3.47-4.25,3.14-4.13,8.32-2.97c5.18,1.16,4.92,0.91,6.63,6.33c1.71,5.41,1.78,5.05-1.69,9.3
			c-3.47,4.25-3.14,4.13-8.32,2.97c-1.22-0.27-2.14-0.47-2.85-0.68L595.97,416.81L595.97,416.81z M579.61,311.19
			c-4.99-1.12-4.74-0.88-6.39-6.09c-1.65-5.22-1.71-4.86,1.63-8.96c1.67-2.05,2.43-3.04,3.39-3.39l6,18.97
			C583.27,312.06,582.1,311.75,579.61,311.19z M578.24,292.75c0.96-0.34,2.13-0.04,4.63,0.52c4.99,1.12,4.74,0.88,6.39,6.09
			c1.65,5.22,1.71,4.86-1.63,8.96c-1.67,2.05-2.43,3.04-3.39,3.39L578.24,292.75L578.24,292.75z M591.68,335.26
			c0.91-1.14,1.97-2.42,3.18-3.9c9.82-12.04,8.89-11.71,23.55-8.42c14.67,3.29,13.92,2.58,18.77,17.91s5.04,14.29-4.78,26.33
			c-9.82,12.04-8.89,11.71-23.55,8.42c-1.8-0.41-3.37-0.75-4.75-1.07L591.68,335.26L591.68,335.26z M626.4,400.99
			c3.46,10.94,2.93,10.44,13.4,12.78c10.47,2.35,9.8,2.59,16.81-6.01c7.01-8.59,6.87-7.85,3.41-18.79
			c-3.46-10.94-2.93-10.43-13.4-12.78c-10.47-2.35-9.8-2.59-16.81,6.01C622.8,390.79,622.94,390.05,626.4,400.99z"/>
	</g>
	<path class="st2" d="M653.08,254.62c0,0,127.07,43.01,123.5,115.75c-0.8,16.35,1.3,33.18,9.45,47.56
		c5.85,10.32,14.37,18.34,23.3,25.88c7.09,5.99,14.61,11.87,19.58,19.92c1.9,3.07,3.23,6.59,3.22,10.2
		c-0.01,4.81-2.39,8.17-6.27,10.57c-3.98,2.46-8.58,4.15-12.98,5.68c-9.41,3.29-2.1,16.78,4.37,30.34c7.26,15.2,1.59,23.73-4,27.54
		c10.43,6.94,8.74,18.33,3.33,26.84c-3.51,5.52-5.13,12.03-6.04,18.47c-1.19,8.49,0.14,17.98-4.02,25.8
		c-4.07,7.67-12.7,12.19-20.76,14.19c-13.78,3.41-28.28,1.07-42.28,2.2c-14.88,1.19-30.32,5.49-44.11,11.18
		c-12.33,5.09-23.96,11.96-34.17,20.64c-11.81,10.04-21.54,22.42-28.79,36.2c-9.13,17.36-14.29,36.62-16.75,56.07
		c-0.72,5.73-1.21,11.49-1.51,17.26c-0.16,3.13-0.26,6.26-0.3,9.39c-0.03,2.12-1.02,7.6,0.02,9.39
		c-62.76-108.17-20-177.44,26.9-224.65C731.85,483.38,809.4,338.96,653.08,254.62z"/>
	<g>
		<g>
			<g>
				<path class="st2" d="M828.81,492.53c-0.18-0.06-1.2,1.57-2.13,4.9c-0.9,3.31-1.66,8.44-0.54,14.71c0.55,3.12,1.58,6.5,3.31,9.88
					c0.43,0.85,0.89,1.7,1.42,2.53c0.49,0.85,1.09,1.66,1.69,2.49c1.15,1.55,2.23,2.98,3.28,4.56c2.08,3.12,3.89,6.47,4.83,10.14
					c0.24,0.92,0.44,1.85,0.57,2.8c0.15,0.92,0.23,2.04,0.21,2.61c-0.07,1.44-0.7,3.18-1.61,4.95c-0.91,1.78-2.09,3.54-3.32,5.3
					c-1.24,1.76-2.54,3.51-3.81,5.38c-2.57,3.82-4.55,7.94-5.73,12.03c-1.2,4.09-1.7,8.1-1.77,11.79c-0.06,3.7,0.26,7.08,0.68,10.12
					c0.92,6.07,2.21,10.79,3.16,14.02c0.97,3.23,1.66,4.98,1.89,4.94c0.24-0.04,0.21-1.93-0.03-5.28
					c-0.22-3.35-0.69-8.17-0.83-14.03c-0.07-5.83,0.21-12.78,2.76-19.66c1.24-3.45,3.07-6.8,5.4-10.05
					c2.42-3.34,5.43-6.83,7.81-11.36c1.15-2.28,2.2-4.85,2.32-7.88c0.01-1.65-0.15-2.73-0.36-3.97c-0.19-1.21-0.49-2.4-0.83-3.56
					c-1.37-4.66-3.81-8.6-6.33-11.89c-1.25-1.64-2.61-3.2-3.8-4.57c-0.55-0.66-1.11-1.29-1.59-1.97c-0.51-0.66-0.96-1.35-1.4-2.04
					c-1.75-2.74-2.98-5.59-3.82-8.28c-1.7-5.41-1.82-10.17-1.68-13.43C828.72,494.46,829.08,492.61,828.81,492.53z"/>
			</g>
		</g>
	</g>
</g>
<path class="st2" d="M743.93,769.36c-4.79-12.6,6.2-19.94,5.76-27.4c-6.74-1.08-12.49-2.01-21.59-3.47
	c20.32-13.62,40.12-24.58,56.04-37.93c78.74-66.05,109.14-144.45,102.39-230.89c-5.58-71.45-37.63-136.75-104.93-191.7
	c-58.46-47.73-130.94-76.31-220.16-76.45c-85.2-0.13-154.7,26.07-211.42,69.72c-59.38,45.7-92.66,100.89-105.34,162.64
	c-17.65,85.95,4.04,167.71,74.1,243.44c17.88,19.33,41.38,35.42,65.67,50.74c18.36,11.59,13.77,25.73-10.83,32.05
	c2.13,6.54,4.25,13.09,6.81,20.97c-5.02-2.05-10.95-3.89-15.96-6.6C281.42,729.4,228.93,669.29,201.6,598.65
	c-42.15-108.94-26.96-213.16,52.55-310.09c39.98-48.74,94.89-86.89,166.54-111.57c121.54-41.86,262.24-25.8,367.4,42.09
	c81.09,52.36,128.43,118.33,147.9,193.98c31.3,121.65-2.04,231.61-114.59,325.49c-18.33,15.29-41.02,27.86-61.69,41.69
	C758.22,779.64,745.59,773.74,743.93,769.36z"/>
</svg>
