<?xml version="1.0" encoding="utf-8"?>
<!-- Generator: Adobe Illustrator 27.1.1, SVG Export Plug-In . SVG Version: 6.00 Build 0)  -->
<svg version="1.1" xmlns="http://www.w3.org/2000/svg" xmlns:xlink="http://www.w3.org/1999/xlink" x="0px" y="0px"
	 viewBox="0 0 1080 1080" style="enable-background:new 0 0 1080 1080;" xml:space="preserve">
<style type="text/css">
	.st0{fill:none;stroke:#1B1464;stroke-width:6.7943;stroke-miterlimit:10;}
	.st1{fill-rule:evenodd;clip-rule:evenodd;fill:#1B1464;}
	.st2{fill:#1B1464;}
	.st3{fill-rule:evenodd;clip-rule:evenodd;fill:none;stroke:#000000;stroke-width:34;stroke-linecap:round;stroke-miterlimit:10;}
</style>
<g id="Layer_1">
	<g>
		<path class="st0" d="M551.93,466.75c-1.83-7.93-6.2-15.24-11.73-21.47c-8.21-9.25-18.99-16.12-27.85-19.13
			c-0.74-0.25-1.46-0.48-2.17-0.67c-16.08-4.44-24.07-1.84-24.07-1.84c-18.87-10.93-35.2,6.28-35.2,6.28
			c-12.1-1.6-21.23,0.98-28.09,5.31c-15.34,9.68-19.25,28.11-19.25,28.11c-23.38,15.18-15.16,42.78-15.16,42.78
			c-2.54,15.97,0.34,28.29,5.05,37.51c8.36,16.34,22.48,22.97,22.48,22.97c21.83,26.52,44.98,14.13,44.98,14.13l20.49,30.74
			l-0.91-9.83c0.12-6.75,1.74-16.03,8.12-24.73c2.12-2.89,3.68-5.62,4.82-8.15c5.27-11.71,1.45-19.2,1.45-19.2
			c14.79-1.73,23.42-7.51,28.43-14.01c8.19-10.63,6.72-23.21,6.72-23.21c5.49-4.15,9.84-8.35,13.21-12.54
			C552.42,488.4,554.31,477.05,551.93,466.75z"/>
		<g>
			<path class="st1" d="M412.42,471.8l2.64,8.35c-2.46-0.55-2.38-0.58-3.29-3.47S410.78,473.81,412.42,471.8L412.42,471.8z
				 M435.88,545.98c-3.34-0.81-3.37-1.35-4.92-6.22c-1.54-4.87-1.82-5.32,0.38-8.11L435.88,545.98L435.88,545.98z M423.27,506.08
				c-0.37,0.49-0.85,1.06-1.44,1.78c-3.14,3.85-2.84,3.75-7.54,2.7c-4.7-1.05-4.46-0.83-6.01-5.73c-1.55-4.91-1.61-4.57,1.53-8.43
				c3.14-3.85,2.84-3.75,7.54-2.7c0.88,0.2,1.58,0.35,2.16,0.5L423.27,506.08L423.27,506.08z M408.31,520.17
				c1.45-1.77,1.31-1.72,3.47-1.24c2.16,0.48,2.05,0.38,2.77,2.64c0.71,2.26,0.74,2.1-0.7,3.88c-1.45,1.77-1.31,1.72-3.47,1.24
				c-2.16-0.48-2.05-0.38-2.77-2.64C406.9,521.79,406.87,521.94,408.31,520.17L408.31,520.17z M408.15,532.7
				c2.48-3.04,2.24-2.95,5.94-2.12c3.7,0.83,3.51,0.65,4.74,4.52c1.22,3.87,1.27,3.61-1.21,6.64c-2.48,3.04-2.24,2.95-5.94,2.12
				c-3.7-0.83-3.51-0.65-4.74-4.52C405.72,535.48,405.67,535.74,408.15,532.7L408.15,532.7z M428.24,544.56
				c2.5,0.56,2.37,0.44,3.2,3.05c0.83,2.61,0.86,2.44-0.82,4.49c-1.67,2.05-1.51,2-4.02,1.44c-2.5-0.56-2.37-0.44-3.2-3.05
				c-0.83-2.61-0.86-2.44,0.82-4.49C425.9,543.94,425.74,544,428.24,544.56z M433.64,478.74l3.54,11.19
				c-1.43,1.73-1.6,1.6-4.35,0.98c-3.12-0.7-2.96-0.55-4-3.81c-0.59-1.86-0.86-2.59-0.59-3.35l-8.2-5c-1.8,2.21-1.7,2.13-4.54,1.49
				l-0.45-0.1l-2.64-8.35l0.3-0.37c1.96-2.4,1.77-2.33,4.69-1.68c2.92,0.66,2.77,0.51,3.74,3.57c0.66,2.09,0.89,2.65,0.34,3.56
				l8.09,4.93l0.26-0.32c1.74-2.13,1.89-2.44,3.7-2.08L433.64,478.74L433.64,478.74z M419.51,494.2l3.76,11.88
				c1.63-2.13,1.35-2.65,0.09-6.65C422.1,495.44,422.02,494.85,419.51,494.2L419.51,494.2z M431.35,531.64
				c0.39-0.49,0.86-1.06,1.41-1.73c3.67-4.5,3.32-4.38,8.81-3.15c4.13,0.93,4.99,1.01,5.94,3.43l2.04-1.16l0.73,2.32l-2,1.14
				l0.31,0.97c1.81,5.73,1.88,5.34-1.79,9.85c-0.98,1.2-1.67,2.07-2.27,2.68l2.51,6.11c0.37,0.04,0.85,0.15,1.54,0.31
				c2.4,0.54,2.27,0.42,3.07,2.93c0.79,2.5,0.82,2.33-0.78,4.3c-1.6,1.97-1.45,1.91-3.85,1.38c-2.4-0.54-2.27-0.42-3.07-2.93
				c-0.79-2.5-0.82-2.33,0.78-4.3l0.38-0.47l-2.53-6.16c-0.98,0.15-2.26-0.17-4.6-0.7c-0.82-0.18-1.52-0.34-2.11-0.48L431.35,531.64
				L431.35,531.64z M471.29,571.07l-5.19-16.41c-0.83,0.3-1.49,1.16-2.93,2.93c-2.89,3.55-2.84,3.24-1.41,7.75
				c1.43,4.51,1.21,4.3,5.53,5.27C469.45,571.11,470.46,571.37,471.29,571.07L471.29,571.07z M443.86,511.04
				c-0.64-0.8-1.02-2.11-1.79-4.55c-0.77-2.44-1.22-3.73-1.16-4.78L443.86,511.04L443.86,511.04z M432.61,508.3
				c3.12,0.7,2.96,0.55,4,3.81c1.03,3.26,1.07,3.04-1.02,5.6c-2.09,2.56-1.89,2.49-5.01,1.79c-3.12-0.7-2.96-0.55-4-3.81
				c-1.03-3.26-1.07-3.04,1.02-5.61C429.69,507.53,429.49,507.6,432.61,508.3z M431.32,455.74c1.16-1.42,1.83-2.28,2.47-2.74
				l5.31,16.8c-0.5,0.03-1.11-0.06-1.96-0.24l-1.4,10.33c2.23,0.51,2.2,0.69,3.12,3.62c1.03,3.26,1.07,3.04-1.02,5.61
				c-0.25,0.31-0.47,0.58-0.66,0.81l-3.54-11.19l1.31-9.66c-3.82-0.85-3.69-0.88-5.09-5.32
				C428.39,459.09,428.33,459.41,431.32,455.74L431.32,455.74z M440.91,501.71c0.07-1.31,0.92-2.27,2.87-4.67
				c1.37-1.68,2.16-2.69,2.92-3.22l6.26,19.79c-0.91,0.06-2.11-0.24-4.16-0.7c-2.92-0.66-4.14-0.87-4.94-1.87L440.91,501.71
				L440.91,501.71z M449.55,529.03l7.02-4l0.73,2.32l-7.02,4L449.55,529.03L449.55,529.03z M466.1,554.66c0.83-0.3,1.84-0.03,4,0.45
				c4.32,0.97,4.1,0.76,5.53,5.27c1.43,4.51,1.48,4.21-1.41,7.75c-1.45,1.77-2.1,2.63-2.93,2.93L466.1,554.66L466.1,554.66z
				 M460.94,548.41c-2.4-0.54-2.27-0.42-3.07-2.93c-0.79-2.5-0.82-2.33,0.78-4.3c1.22-1.49,1.42-1.82,2.5-1.66l2.72,8.6
				C463.11,548.95,462.76,548.82,460.94,548.41z M439.11,469.81l-5.31-16.8c1.01-0.72,1.97-0.44,4.7,0.17
				c4.47,1,4.24,0.79,5.72,5.45c1.48,4.67,1.53,4.35-1.46,8.02C440.92,468.89,440.32,469.73,439.11,469.81L439.11,469.81z
				 M446.7,493.82c1.08-0.76,2.1-0.57,4.67,0.01l2.23-7.54c-2.49-0.73-2.66-1.59-4.05-6.02c-1.82-5.74-1.89-5.37,1.76-9.84
				l5.24,16.56l-0.75-0.17l-2.22,7.51c3.89,0.88,3.82,1.14,5.39,6.12c1.74,5.5,1.81,5.13-1.71,9.45c-2.15,2.64-2.86,3.62-4.29,3.72
				L446.7,493.82L446.7,493.82z M456.57,525.03l0.91-0.52l-0.08-0.26c-1.29-4.07-1.34-3.79,1.27-6.99c2.61-3.2,2.36-3.11,6.25-2.23
				l0.53,0.12l3.54,11.19l-0.36,0.44c-2.61,3.2-2.36,3.11-6.25,2.23c-2.79-0.63-3.48-0.71-4.12-2.2l-0.96,0.55L456.57,525.03
				L456.57,525.03z M461.15,539.53c0.34,0.05,0.77,0.15,1.35,0.28c2.4,0.54,2.27,0.42,3.07,2.93c0.79,2.5,0.82,2.33-0.78,4.3
				c-0.39,0.47-0.67,0.83-0.91,1.09L461.15,539.53L461.15,539.53z M473.37,542.85c-2.4-0.54-2.27-0.42-3.07-2.93
				c-0.79-2.5-0.82-2.33,0.78-4.3c0.24-0.29,0.44-0.54,0.61-0.74l2.58,8.17C474.02,543,473.72,542.93,473.37,542.85z M451.31,470.42
				l0.04-0.05c3.69-4.53,3.34-4.4,8.85-3.16c5.51,1.24,5.23,0.97,7.06,6.73c1.48,4.67,1.8,5.3-0.1,7.78l7.99,6.74
				c5.59-6.86,5.12-6.66,13.62-4.75l0.81,0.18l7.91,25.01l-0.54,0.66c-5.74,7.04-5.19,6.84-13.76,4.92
				c-8.57-1.92-8.13-1.51-10.97-10.46c-2.59-8.2-2.9-8.38,1.46-13.75l-7.98-6.73l-0.25,0.3c-3.69,4.53-3.34,4.4-8.85,3.16
				l-0.06-0.01L451.31,470.42L451.31,470.42z M465.45,515.15l3.54,11.19c2.24-2.74,2.14-2.68,0.91-6.55
				C468.68,515.91,468.8,515.89,465.45,515.15L465.45,515.15z M471.69,534.88c1-1.2,1.2-1.09,3.24-0.63
				c2.4,0.54,2.27,0.42,3.07,2.93c0.79,2.5,0.82,2.33-0.78,4.3c-1.37,1.68-1.46,1.89-2.94,1.58L471.69,534.88L471.69,534.88z
				 M486.94,475.53l-11.77-37.23c-0.52,0.39-1.07,1.09-2,2.24c-2.49,3.06-2.45,2.79-1.21,6.69c1.23,3.89,1.04,3.71,4.77,4.55
				c1.24,0.28,2.04,0.47,2.65,0.5l1.65,4.67c-0.41,0.49-0.89,1.08-1.47,1.79c-3.62,4.44-3.55,4.06-1.76,9.71
				c1.79,5.65,1.51,5.39,6.92,6.6C485.59,475.24,486.32,475.4,486.94,475.53L486.94,475.53z M451.01,441.89
				c1.93-2.37,1.75-2.3,4.64-1.66c2.89,0.65,2.74,0.51,3.7,3.53c0.95,3.02,0.99,2.81-0.94,5.18c-1.93,2.37-1.75,2.31-4.64,1.66
				c-2.89-0.65-2.74-0.51-3.7-3.53S449.07,444.26,451.01,441.89L451.01,441.89z M482.84,527.14c1.2,3.8,1.02,3.62,4.65,4.44
				c3.64,0.82,3.4,0.9,5.84-2.09c2.43-2.98,2.39-2.73,1.18-6.52c-1.2-3.8-1.02-3.62-4.65-4.44c-3.63-0.82-3.4-0.9-5.84,2.09
				C481.59,523.6,481.64,523.34,482.84,527.14z M475.16,438.3c0.87-0.65,1.65-0.42,3.98,0.1c3.73,0.84,3.54,0.65,4.77,4.55
				c1.23,3.89,1.28,3.63-1.21,6.69c-0.55,0.68-0.97,1.2-1.33,1.59l1.42,4.02c1.14-0.66,2.36-0.32,5.44,0.37
				c5.41,1.21,5.13,0.95,6.92,6.6l0.11,0.33l2.75-0.69l0.73,2.29l-2.76,0.69c0.87,3.05,0.36,3.48-2.58,7.08
				c-3.03,3.71-3.28,4.23-6.45,3.6L475.16,438.3L475.16,438.3z M489.58,483.89c7.74,1.72,7.42,1.62,10.16,10.28
				c2.74,8.67,2.93,8.38-2.25,14.72L489.58,483.89L489.58,483.89z M507.13,490.73c-0.9-0.26-0.96-0.58-1.46-2.19
				c-0.51-1.6-0.64-1.9-0.08-2.68L507.13,490.73L507.13,490.73z M488.47,431.72c-0.37,0.13-0.67,0.52-1.31,1.31
				c-1.29,1.59-1.27,1.45-0.63,3.47c0.64,2.02,0.54,1.93,2.48,2.36c0.97,0.22,1.42,0.34,1.79,0.2L488.47,431.72z M488.47,431.72
				c0.37-0.13,0.83-0.01,1.79,0.2c1.93,0.43,1.84,0.34,2.48,2.36c0.64,2.02,0.66,1.88-0.63,3.47c-0.65,0.79-0.94,1.18-1.31,1.31
				L488.47,431.72L488.47,431.72z M498,461.87l4.6-1.16c-0.96-3.17-0.79-3.84,1.32-6.46l4.81,15.22c-3.79-0.88-3.79-1.31-5.41-6.46
				l-4.6,1.16L498,461.87L498,461.87z M505.59,485.85c0.17-0.24,0.41-0.53,0.73-0.92c1.34-1.65,1.22-1.6,3.22-1.15
				c2.01,0.45,1.91,0.35,2.57,2.45c0.66,2.1,0.69,1.96-0.65,3.6c-1.34,1.65-1.22,1.6-3.22,1.15c-0.47-0.11-0.83-0.18-1.11-0.26
				L505.59,485.85L505.59,485.85z M499.25,444.91c-1.93-0.43-1.84-0.34-2.48-2.36c-0.64-2.02-0.66-1.88,0.63-3.47
				c0.65-0.79,0.94-1.18,1.31-1.31l2.32,7.35C500.67,445.25,500.21,445.13,499.25,444.91z M498.71,437.77
				c0.37-0.13,0.83-0.01,1.79,0.2c1.93,0.43,1.84,0.34,2.48,2.36c0.64,2.02,0.66,1.88-0.63,3.47c-0.65,0.79-0.94,1.18-1.31,1.31
				L498.71,437.77L498.71,437.77z M503.93,454.24c0.35-0.44,0.76-0.94,1.23-1.51c3.81-4.67,3.44-4.54,9.13-3.26
				c5.69,1.28,5.4,1,7.28,6.94c1.88,5.94,1.95,5.54-1.85,10.21c-3.81,4.67-3.44,4.54-9.13,3.26c-0.7-0.16-1.31-0.29-1.84-0.41
				L503.93,454.24L503.93,454.24z M517.38,479.72c1.34,4.24,1.14,4.04,5.19,4.95c4.06,0.91,3.8,1,6.51-2.33
				c2.72-3.33,2.66-3.04,1.32-7.28c-1.34-4.24-1.14-4.04-5.19-4.95s-3.8-1-6.51,2.33C515.99,475.77,516.04,475.48,517.38,479.72z"/>
		</g>
		<path class="st2" d="M527.72,422.99c0,0,49.25,16.67,47.87,44.87c-0.31,6.34,0.51,12.86,3.66,18.44c2.27,4,5.57,7.11,9.03,10.03
			c2.75,2.32,5.66,4.6,7.59,7.72c0.73,1.19,1.25,2.55,1.25,3.96c-0.01,1.86-0.92,3.17-2.43,4.1c-1.54,0.95-3.33,1.61-5.03,2.2
			c-3.65,1.28-0.81,6.51,1.7,11.76c2.82,5.89,0.62,9.2-1.55,10.68c4.04,2.69,3.39,7.11,1.29,10.4c-1.36,2.14-1.99,4.66-2.34,7.16
			c-0.46,3.29,0.05,6.97-1.56,10c-1.58,2.97-4.92,4.73-8.05,5.5c-5.34,1.32-10.96,0.42-16.39,0.85c-5.77,0.46-11.75,2.13-17.1,4.33
			c-4.78,1.97-9.29,4.63-13.24,8c-4.58,3.89-8.35,8.69-11.16,14.03c-3.54,6.73-5.54,14.19-6.49,21.73
			c-0.28,2.22-0.47,4.45-0.58,6.69c-0.06,1.21-0.1,2.42-0.12,3.64c-0.01,0.82-0.39,2.95,0.01,3.64
			c-24.33-41.93-7.75-68.78,10.43-87.08C558.26,511.66,588.32,455.68,527.72,422.99z"/>
		<g>
			<g>
				<g>
					<path class="st2" d="M595.84,515.21c-0.07-0.02-0.46,0.61-0.83,1.9c-0.35,1.28-0.64,3.27-0.21,5.7
						c0.21,1.21,0.61,2.52,1.28,3.83c0.33,0.66,0.73,1.31,1.2,1.95c0.44,0.6,0.86,1.16,1.27,1.77c0.81,1.21,1.51,2.51,1.87,3.93
						c0.09,0.35,0.17,0.72,0.22,1.09c0.06,0.36,0.09,0.79,0.08,1.01c-0.03,0.56-0.27,1.23-0.62,1.92c-0.72,1.39-1.79,2.71-2.77,4.14
						c-1,1.48-1.76,3.08-2.22,4.66c-0.94,3.19-0.74,6.16-0.42,8.49c0.36,2.35,0.86,4.18,1.23,5.44c0.38,1.25,0.64,1.93,0.73,1.91
						c0.09-0.02,0.08-0.75-0.01-2.05c-0.08-1.3-0.27-3.17-0.32-5.44c-0.03-2.26,0.08-4.95,1.07-7.62c0.48-1.34,1.19-2.64,2.09-3.9
						c0.94-1.3,2.1-2.65,3.03-4.4c0.45-0.88,0.85-1.88,0.9-3.05c0.01-0.64-0.06-1.06-0.14-1.54c-0.07-0.47-0.19-0.93-0.32-1.38
						c-0.53-1.81-1.48-3.33-2.45-4.61c-0.48-0.64-1.01-1.24-1.47-1.77c-0.43-0.5-0.83-1.02-1.16-1.55
						c-0.68-1.06-1.15-2.17-1.48-3.21c-0.66-2.1-0.71-3.94-0.65-5.2C595.81,515.95,595.95,515.24,595.84,515.21z"/>
				</g>
			</g>
		</g>
	</g>
</g>
<g id="AROMA">
	<g>
		<g>
			<path class="st2" d="M205.53,578.1l-35.05,11.76c-0.74-2.36-2.58-7.55-5.52-15.58c-2.94-8.02-6.43-17.08-10.48-27.18H99.8
				c-4.18,10.24-7.74,19.37-10.7,27.39c-2.95,8.02-4.76,13.14-5.42,15.36l-32.96-11.23c1.93-4.29,9.4-21.35,22.4-51.17
				c13-29.82,25.41-58.4,37.22-85.74h36.42c12.32,28.78,24.96,58.15,37.92,88.11C197.65,559.79,204.59,575.88,205.53,578.1z
				 M146.12,524.77c-2.73-7.31-5.71-15.35-8.96-24.13c-3.25-8.78-6.49-17.39-9.74-25.85L127,474.8c-2.72,6.95-5.96,15.54-9.71,25.79
				c-3.76,10.24-6.8,18.3-9.13,24.17l-0.04,0.11h38.04L146.12,524.77z"/>
			<path class="st2" d="M354.51,576.87l-32.81,12.78c-2.65-3.87-7.87-10.78-15.67-20.73c-7.8-9.95-19.64-25.39-35.53-46.3l0.54-2.15
				c2.36-0.5,5.48-1.72,9.35-3.65c3.87-1.93,7.09-4.15,9.67-6.66c2.65-2.65,4.66-5.44,6.02-8.38c1.36-2.94,2.04-6.7,2.04-11.28
				c0-4.37-1.13-8.27-3.38-11.71s-5.35-5.98-9.29-7.63c-3.22-1.36-6.55-2.2-9.99-2.52s-6.77-0.48-9.99-0.48c-1.93,0-3.4,0-4.4,0
				c-1,0-1.68,0-2.04,0c-0.07,8.52-0.13,17.24-0.16,26.16c-0.04,8.92-0.05,16.92-0.05,24.01c0,11.67,0.04,24.44,0.11,38.3
				c0.07,13.86,0.14,23.87,0.21,30.02h-35.56c0.07-5.66,0.16-13.98,0.27-24.98c0.11-10.99,0.16-27.23,0.16-48.72
				c0-5.73-0.02-13.93-0.05-24.6c-0.04-10.67-0.16-25.85-0.38-45.55c2.08,0,6.39-0.07,12.94-0.21c6.55-0.14,12.66-0.21,18.32-0.21
				c10.67,0,19.93,0.32,27.77,0.97s15.24,2.15,22.18,4.51c9.95,3.29,17.35,8.15,22.18,14.56c4.83,6.41,7.25,13.63,7.25,21.65
				c0,9.17-2.54,17.01-7.63,23.53c-5.09,6.52-10.28,11.42-15.58,14.72v0.64c7.43,9.38,15.36,18.92,23.79,28.63
				C343.23,561.27,349.8,569.71,354.51,576.87z"/>
		</g>
	</g>
	<g>
		<g>
			<path class="st2" d="M840.51,589.02l-34.29,6.55l-18.04-96.86l-0.58-0.17c-1.94,4.45-6.21,14.51-12.8,30.18
				c-6.6,15.67-13.27,32.33-20.01,49.98h-26.75c-6.66-17.62-13.43-34.48-20.31-50.56c-6.88-16.08-11.07-25.92-12.57-29.5l-0.54-0.02
				c-0.71,3.44-3.1,15.16-7.17,35.15c-4.07,19.99-7.95,40.56-11.66,61.69l-33.25-6.34c7.52-33.52,13.98-63.79,19.39-90.83
				c5.41-27.03,8.54-42.63,9.4-46.78l34.48-3.65c1,2.79,4.98,13,11.92,30.62c6.95,17.62,15.04,37.74,24.28,60.37h0.86
				c7.38-17.97,15.22-37.24,23.53-57.79c8.31-20.55,12.78-31.62,13.43-33.19l35.13,3.01c0.36,2.44,2.95,17.03,7.79,43.77
				S833.49,552.86,840.51,589.02z"/>
			<path class="st2" d="M999.82,585.1l-35.05,11.76c-0.74-2.36-2.58-7.55-5.52-15.58c-2.94-8.02-6.43-17.08-10.48-27.18h-54.68
				c-4.18,10.24-7.75,19.37-10.7,27.39c-2.95,8.02-4.76,13.14-5.42,15.36l-32.96-11.23c1.93-4.29,9.4-21.35,22.4-51.17
				c13-29.82,25.41-58.4,37.22-85.74h36.42c12.32,28.78,24.96,58.15,37.92,88.11C991.94,566.79,998.88,582.88,999.82,585.1z
				 M940.41,531.77c-2.73-7.31-5.71-15.35-8.96-24.13c-3.25-8.78-6.49-17.39-9.74-25.85l-0.43,0.02
				c-2.72,6.95-5.96,15.54-9.71,25.79c-3.76,10.24-6.8,18.3-9.13,24.17l-0.04,0.11h38.04L940.41,531.77z"/>
		</g>
	</g>
	<path class="st3" d="M418.79,899.69"/>
	<path class="st2" d="M562.94,622.51c-1.86-4.88,2.4-7.73,2.23-10.62c-2.61-0.42-4.84-0.78-8.37-1.34
		c7.88-5.28,15.55-9.53,21.72-14.7c30.52-25.6,42.31-55.99,39.69-89.5c-2.16-27.7-14.59-53.01-40.67-74.31
		c-22.66-18.5-50.76-29.58-85.34-29.63c-33.02-0.05-59.97,10.11-81.95,27.03c-23.02,17.71-35.92,39.11-40.83,63.04
		c-6.84,33.31,1.57,65.01,28.72,94.37c6.93,7.49,16.04,13.73,25.45,19.67c7.12,4.49,5.34,9.97-4.2,12.42
		c0.82,2.54,1.65,5.07,2.64,8.13c-1.95-0.79-4.24-1.51-6.19-2.56c-32.19-17.47-52.54-40.77-63.13-68.16
		c-16.34-42.23-10.45-82.63,20.37-120.2c15.5-18.89,36.78-33.68,64.56-43.25c47.11-16.23,101.65-10,142.42,16.32
		c31.43,20.29,49.78,45.87,57.33,75.19c12.13,47.15-0.79,89.78-44.42,126.17c-7.1,5.93-15.9,10.8-23.91,16.16
		C568.48,626.5,563.59,624.21,562.94,622.51z"/>
	<g>
		<g>
			<path class="st2" d="M88.32,669.6c2.33,1.46,5.74,2.62,9.33,2.62c5.34,0,8.48-2.79,8.48-6.89c0-3.75-2.19-5.96-7.65-8
				c-6.6-2.34-10.69-5.81-10.69-11.47c0-6.29,5.23-10.97,13.11-10.97c4.11,0,7.16,0.95,8.92,1.96l-1.46,4.28
				c-1.29-0.77-4-1.92-7.64-1.92c-5.55,0-7.65,3.29-7.65,6.05c0,3.75,2.46,5.61,8.04,7.76c6.86,2.69,10.31,5.98,10.31,11.91
				c0,6.2-4.57,11.66-14.15,11.66c-3.91,0-8.17-1.18-10.33-2.64L88.32,669.6z"/>
			<path class="st2" d="M121.38,662.41c0.1,7.13,4.63,10.07,9.93,10.07c3.78,0,6.09-0.68,8.04-1.49l0.92,3.75
				c-1.85,0.84-5.07,1.85-9.68,1.85c-8.92,0-14.28-5.94-14.28-14.64c0-8.79,5.18-15.66,13.65-15.66c9.47,0,11.94,8.31,11.94,13.65
				c0,1.11-0.06,1.9-0.18,2.47H121.38z M136.82,658.62c0.05-3.33-1.36-8.54-7.28-8.54c-5.39,0-7.68,4.87-8.1,8.54H136.82z"/>
			<path class="st2" d="M148.48,654.79c0-3.03-0.1-5.43-0.24-7.84h4.66l0.29,4.77h0.15c1.43-2.73,4.8-5.43,9.59-5.43
				c3.99,0,10.23,2.4,10.23,12.37v17.31h-5.25v-16.73c0-4.69-1.77-8.62-6.71-8.62c-3.46,0-6.16,2.46-7.11,5.42
				c-0.22,0.64-0.36,1.58-0.36,2.45v17.49h-5.25V654.79z"/>
			<path class="st2" d="M181.04,670.59c1.59,0.99,4.37,2.07,6.99,2.07c3.85,0,5.64-1.89,5.64-4.32c0-2.54-1.54-3.87-5.39-5.31
				c-5.24-1.9-7.72-4.75-7.71-8.23c0-4.67,3.8-8.51,10.04-8.51c2.95,0,5.49,0.8,7.11,1.79l-1.31,3.84c-1.12-0.7-3.24-1.71-5.95-1.71
				c-3.11,0-4.81,1.8-4.81,3.98c0,2.4,1.71,3.47,5.51,4.95c5,1.86,7.6,4.38,7.61,8.72c0,5.14-4,8.74-10.85,8.74
				c-3.18,0-6.11-0.82-8.15-2.02L181.04,670.59z"/>
			<path class="st2" d="M231.81,661.18c0,10.75-7.45,15.45-14.43,15.45c-7.87,0-13.95-5.74-13.95-14.95
				c0-9.71,6.38-15.39,14.41-15.39C226.18,646.29,231.81,652.34,231.81,661.18z M208.8,661.52c0,6.37,3.65,11.16,8.8,11.16
				c5.06,0,8.84-4.73,8.84-11.31c0-4.91-2.47-11.12-8.75-11.12C211.49,650.25,208.8,656.02,208.8,661.52z"/>
			<path class="st2" d="M238.47,655.99c0-3.43-0.09-6.35-0.24-9.04h4.62l0.2,5.69h0.19c1.35-3.89,4.55-6.35,8.08-6.35
				c0.57,0,0.99,0.04,1.47,0.15v4.96c-0.54-0.11-1.07-0.15-1.79-0.15c-3.72,0-6.35,2.8-7.06,6.75c-0.14,0.74-0.21,1.61-0.21,2.46
				v15.5h-5.25V655.99z"/>
			<path class="st2" d="M260.01,646.95l6.34,17.15c0.68,1.92,1.39,4.19,1.87,5.92h0.15c0.52-1.71,1.16-3.93,1.85-6.04l5.74-17.03
				h5.6l-7.94,20.67c-3.76,9.98-6.34,15.05-9.94,18.2c-2.61,2.26-5.18,3.15-6.47,3.39l-1.31-4.41c1.33-0.42,3.04-1.24,4.62-2.58
				c1.42-1.15,3.19-3.2,4.41-5.88c0.27-0.56,0.41-0.95,0.41-1.27c0-0.3-0.09-0.72-0.37-1.35l-10.7-26.76H260.01z"/>
			<path class="st2" d="M299.24,636.08c3.2-0.52,7-0.87,11.11-0.87c7.48,0,12.85,1.77,16.38,5.08c3.62,3.27,5.73,7.96,5.73,14.47
				c0,6.63-2.07,12-5.82,15.73c-3.82,3.76-10.07,5.83-17.9,5.83c-3.74,0-6.84-0.15-9.5-0.45V636.08z M304.48,671.86
				c1.33,0.21,3.26,0.25,5.25,0.25c11.19,0.03,17.22-6.21,17.22-17.14c0.06-9.55-5.34-15.58-16.35-15.58c-2.7,0-4.73,0.25-6.12,0.53
				V671.86z"/>
			<path class="st2" d="M344.94,638.75c0,1.8-1.26,3.28-3.36,3.28c-1.91,0-3.19-1.48-3.19-3.28c0-1.81,1.35-3.28,3.28-3.28
				C343.65,635.46,344.92,636.91,344.94,638.75z M339.04,675.97v-29.02h5.25v29.02H339.04z"/>
			<path class="st2" d="M369.17,675.97l-0.47-3.67h-0.16c-1.59,2.27-4.72,4.33-8.88,4.33c-5.86,0-8.86-4.16-8.86-8.33
				c0-7.03,6.23-10.89,17.44-10.81v-0.62c0-2.36-0.66-6.73-6.61-6.69c-2.7,0-5.52,0.81-7.56,2.16l-1.2-3.51
				c2.4-1.55,5.92-2.54,9.58-2.54c8.87,0,11.03,6.06,11.03,11.88v10.86c0,2.48,0.11,4.95,0.44,6.94H369.17z M368.35,661.15
				c-5.71-0.12-12.25,0.91-12.25,6.52c0,3.46,2.28,5.05,4.93,5.05c3.82,0,6.23-2.41,7.07-4.86c0.18-0.56,0.25-1.16,0.25-1.66V661.15
				z"/>
			<path class="st2" d="M407.04,646.95c-0.15,2.05-0.24,4.41-0.24,7.94v16.85c0,6.72-1.37,10.74-4.14,13.28
				c-2.85,2.61-6.91,3.48-10.57,3.48c-3.51,0-7.33-0.82-9.69-2.39l1.32-4.06c1.94,1.21,4.92,2.32,8.54,2.32
				c5.39,0,9.35-2.82,9.35-10.17v-3.23h-0.12c-1.59,2.73-4.75,4.89-9.22,4.89c-7.23,0-12.37-6.15-12.37-14.19
				c0-9.84,6.4-15.38,13.1-15.38c5.04,0,7.76,2.59,9.05,5.01h0.12l0.22-4.35H407.04z M401.55,658.36c0-0.86-0.08-1.65-0.29-2.36
				c-0.97-3.07-3.52-5.61-7.41-5.61c-5.03,0-8.64,4.26-8.64,11c0,5.68,2.93,10.45,8.59,10.45c3.28,0,6.21-2.07,7.34-5.44
				c0.28-0.85,0.42-1.88,0.42-2.81V658.36z"/>
			<path class="st2" d="M415.54,654.79c0-3.03-0.1-5.43-0.24-7.84h4.66l0.29,4.77h0.15c1.43-2.73,4.8-5.43,9.59-5.43
				c3.99,0,10.23,2.4,10.23,12.37v17.31h-5.25v-16.73c0-4.69-1.77-8.62-6.71-8.62c-3.46,0-6.16,2.46-7.11,5.42
				c-0.22,0.64-0.36,1.58-0.36,2.45v17.49h-5.25V654.79z"/>
			<path class="st2" d="M475.1,661.18c0,10.75-7.46,15.45-14.43,15.45c-7.87,0-13.95-5.74-13.95-14.95
				c0-9.71,6.38-15.39,14.41-15.39C469.48,646.29,475.1,652.34,475.1,661.18z M452.1,661.52c0,6.37,3.65,11.16,8.79,11.16
				c5.06,0,8.84-4.73,8.84-11.31c0-4.91-2.47-11.12-8.75-11.12C454.79,650.25,452.1,656.02,452.1,661.52z"/>
			<path class="st2" d="M481.03,670.59c1.59,0.99,4.37,2.07,6.99,2.07c3.85,0,5.64-1.89,5.64-4.32c0-2.54-1.54-3.87-5.39-5.31
				c-5.24-1.9-7.72-4.75-7.71-8.23c0-4.67,3.8-8.51,10.04-8.51c2.95,0,5.5,0.8,7.11,1.79l-1.31,3.84c-1.12-0.7-3.24-1.71-5.95-1.71
				c-3.11,0-4.81,1.8-4.81,3.98c0,2.4,1.71,3.47,5.51,4.95c5,1.86,7.6,4.38,7.61,8.72c0,5.14-4,8.74-10.85,8.74
				c-3.18,0-6.11-0.82-8.16-2.02L481.03,670.59z"/>
			<path class="st2" d="M511.87,638.6v8.35h7.58v4h-7.58v15.64c0,3.62,1.04,5.66,3.99,5.66c1.37,0,2.36-0.17,3.06-0.38l0.24,4.01
				c-1.02,0.4-2.66,0.73-4.71,0.73c-2.42,0-4.44-0.8-5.7-2.23c-1.45-1.6-2.05-4.16-2.05-7.57v-15.84h-4.49v-4h4.49v-6.99
				L511.87,638.6z"/>
			<path class="st2" d="M531.29,638.75c0,1.8-1.26,3.28-3.36,3.28c-1.91,0-3.19-1.48-3.19-3.28c0-1.81,1.35-3.28,3.28-3.28
				C530,635.46,531.28,636.91,531.29,638.75z M525.4,675.97v-29.02h5.25v29.02H525.4z"/>
			<path class="st2" d="M560.13,674.92c-1.39,0.68-4.42,1.68-8.32,1.68c-8.75,0-14.48-5.95-14.48-14.83
				c0-8.94,6.1-15.47,15.59-15.47c3.11,0,5.91,0.79,7.33,1.55l-1.17,4.05c-1.29-0.69-3.27-1.4-6.17-1.4
				c-6.62,0-10.25,4.96-10.24,10.99c0,6.72,4.32,10.86,10.11,10.86c2.96,0,4.97-0.75,6.46-1.39L560.13,674.92z"/>
			<path class="st2" d="M565.57,670.59c1.59,0.99,4.37,2.07,6.99,2.07c3.85,0,5.64-1.89,5.64-4.32c0-2.54-1.54-3.87-5.39-5.31
				c-5.24-1.9-7.72-4.75-7.71-8.23c0-4.67,3.8-8.51,10.04-8.51c2.95,0,5.5,0.8,7.11,1.79l-1.31,3.84c-1.12-0.7-3.24-1.71-5.95-1.71
				c-3.11,0-4.81,1.8-4.81,3.98c0,2.4,1.71,3.47,5.51,4.95c5,1.86,7.6,4.38,7.61,8.72c0,5.14-4,8.74-10.85,8.74
				c-3.18,0-6.11-0.82-8.16-2.02L565.57,670.59z"/>
			<path class="st2" d="M628.29,675.97c-1.16-1.16-2.21-2.3-3.77-3.94c-3.52,3.21-7.37,4.6-11.81,4.6
				c-7.85,0-12.43-5.29-12.43-11.34c0-5.51,3.31-9.27,7.89-11.81l0.01-0.19c-2.08-2.62-3.37-5.57-3.37-8.44
				c0-4.95,3.57-9.98,10.28-9.98c5.03,0,8.95,3.33,8.95,8.59c0,4.24-2.49,7.6-8.87,10.79l-0.01,0.2c3.43,3.97,7.26,8.36,9.86,11.25
				c1.86-2.82,3.1-6.73,3.89-11.8h4.78c-1.08,6.35-2.81,11.38-5.83,14.92c2.17,2.31,4.26,4.57,6.7,7.16H628.29z M621.91,669.01
				c-2.4-2.62-6.9-7.58-11.36-12.73c-2.21,1.4-5.23,3.95-5.23,8.2c0,4.66,3.39,8.17,8.25,8.17
				C617.09,672.65,619.98,671.12,621.91,669.01z M609.61,644.34c0,2.9,1.36,5.12,3.08,7.28c4.1-2.34,6.71-4.49,6.71-7.91
				c0-2.5-1.4-5.24-4.7-5.24C611.37,638.47,609.61,641.25,609.61,644.34z"/>
			<path class="st2" d="M659.69,639.94h-12.32v-4.41h29.95v4.41h-12.38v36.03h-5.25V639.94z"/>
			<path class="st2" d="M681.64,633.37h5.25v18.11h0.12c0.87-1.48,2.18-2.81,3.79-3.73c1.54-0.91,3.4-1.46,5.4-1.46
				c3.91,0,10.11,2.38,10.11,12.4v17.28h-5.25v-16.7c0-4.68-1.77-8.62-6.71-8.62c-3.45,0-6.11,2.41-7.12,5.27
				c-0.27,0.74-0.35,1.54-0.35,2.51v17.54h-5.25V633.37z"/>
			<path class="st2" d="M717.89,662.41c0.1,7.13,4.63,10.07,9.93,10.07c3.78,0,6.09-0.68,8.04-1.49l0.92,3.75
				c-1.84,0.84-5.07,1.85-9.68,1.85c-8.92,0-14.28-5.94-14.28-14.64c0-8.79,5.18-15.66,13.65-15.66c9.47,0,11.94,8.31,11.94,13.65
				c0,1.11-0.06,1.9-0.18,2.47H717.89z M733.33,658.62c0.05-3.33-1.36-8.54-7.28-8.54c-5.39,0-7.68,4.87-8.1,8.54H733.33z"/>
			<path class="st2" d="M744.99,655.99c0-3.43-0.09-6.35-0.24-9.04h4.62l0.2,5.69h0.19c1.35-3.89,4.55-6.35,8.08-6.35
				c0.57,0,0.99,0.04,1.47,0.15v4.96c-0.54-0.11-1.07-0.15-1.79-0.15c-3.72,0-6.35,2.8-7.06,6.75c-0.14,0.74-0.21,1.61-0.21,2.46
				v15.5h-5.25V655.99z"/>
			<path class="st2" d="M780.7,675.97l-0.46-3.67h-0.16c-1.59,2.27-4.72,4.33-8.88,4.33c-5.86,0-8.86-4.16-8.86-8.33
				c0-7.03,6.23-10.89,17.44-10.81v-0.62c0-2.36-0.66-6.73-6.61-6.69c-2.7,0-5.52,0.81-7.56,2.16l-1.2-3.51
				c2.4-1.55,5.92-2.54,9.58-2.54c8.87,0,11.03,6.06,11.03,11.88v10.86c0,2.48,0.11,4.95,0.44,6.94H780.7z M779.88,661.15
				c-5.71-0.12-12.25,0.91-12.25,6.52c0,3.46,2.28,5.05,4.93,5.05c3.82,0,6.23-2.41,7.07-4.86c0.18-0.56,0.25-1.16,0.25-1.66V661.15
				z"/>
			<path class="st2" d="M793.53,656.4c0-3.7-0.1-6.71-0.24-9.45H798l0.29,4.95h0.12c2.11-3.54,5.58-5.61,10.3-5.61
				c7.02,0,12.32,5.92,12.32,14.72c0,10.46-6.4,15.61-13.19,15.61c-3.88,0-7.21-1.69-8.94-4.57h-0.12v15.79h-5.25V656.4z
				 M798.77,664.16c0,0.74,0.08,1.47,0.23,2.15c0.95,3.69,4.15,6.19,7.89,6.19c5.59,0,8.82-4.59,8.82-11.24
				c0-5.79-3.03-10.77-8.62-10.77c-3.59,0-6.98,2.54-7.98,6.51c-0.17,0.68-0.34,1.45-0.34,2.14V664.16z"/>
			<path class="st2" d="M830.63,662.41c0.1,7.13,4.63,10.07,9.93,10.07c3.78,0,6.09-0.68,8.04-1.49l0.92,3.75
				c-1.84,0.84-5.07,1.85-9.68,1.85c-8.92,0-14.28-5.94-14.28-14.64c0-8.79,5.18-15.66,13.65-15.66c9.47,0,11.94,8.31,11.94,13.65
				c0,1.11-0.06,1.9-0.18,2.47H830.63z M846.07,658.62c0.05-3.33-1.36-8.54-7.28-8.54c-5.39,0-7.68,4.87-8.1,8.54H846.07z"/>
			<path class="st2" d="M882,668.03c0,3.04,0.1,5.65,0.24,7.94h-4.66l-0.28-4.75h-0.15c-1.34,2.33-4.4,5.41-9.6,5.41
				c-4.54,0-9.99-2.55-9.99-12.72v-16.96h5.25v16.03c0,5.53,1.72,9.29,6.49,9.29c3.54,0,6.01-2.48,6.98-4.84
				c0.27-0.76,0.48-1.7,0.48-2.71v-17.77H882V668.03z"/>
			<path class="st2" d="M897.13,638.6v8.35h7.58v4h-7.58v15.64c0,3.62,1.04,5.66,3.99,5.66c1.37,0,2.36-0.17,3.06-0.38l0.24,4.01
				c-1.02,0.4-2.66,0.73-4.71,0.73c-2.42,0-4.44-0.8-5.7-2.23c-1.45-1.6-2.05-4.16-2.05-7.57v-15.84h-4.49v-4h4.49v-6.99
				L897.13,638.6z"/>
			<path class="st2" d="M916.55,638.75c0,1.8-1.26,3.28-3.36,3.28c-1.91,0-3.19-1.48-3.19-3.28c0-1.81,1.35-3.28,3.28-3.28
				C915.26,635.46,916.54,636.91,916.55,638.75z M910.65,675.97v-29.02h5.25v29.02H910.65z"/>
			<path class="st2" d="M945.38,674.92c-1.39,0.68-4.42,1.68-8.32,1.68c-8.75,0-14.48-5.95-14.48-14.83
				c0-8.94,6.1-15.47,15.59-15.47c3.11,0,5.91,0.79,7.33,1.55l-1.17,4.05c-1.29-0.69-3.27-1.4-6.17-1.4
				c-6.62,0-10.25,4.96-10.24,10.99c0,6.72,4.32,10.86,10.11,10.86c2.96,0,4.97-0.75,6.46-1.39L945.38,674.92z"/>
			<path class="st2" d="M950.83,670.59c1.59,0.99,4.37,2.07,6.99,2.07c3.85,0,5.64-1.89,5.64-4.32c0-2.54-1.54-3.87-5.39-5.31
				c-5.24-1.9-7.72-4.75-7.71-8.23c0-4.67,3.8-8.51,10.04-8.51c2.95,0,5.5,0.8,7.11,1.79l-1.31,3.84c-1.12-0.7-3.24-1.71-5.95-1.71
				c-3.11,0-4.81,1.8-4.81,3.98c0,2.4,1.71,3.47,5.51,4.95c5,1.86,7.6,4.38,7.61,8.72c0,5.14-4,8.74-10.85,8.74
				c-3.18,0-6.11-0.82-8.16-2.02L950.83,670.59z"/>
		</g>
	</g>
</g>
</svg>
